<svg xmlns="http://www.w3.org/2000/svg" xmlns:xlink="http://www.w3.org/1999/xlink" width="1456" zoomAndPan="magnify" viewBox="0 0 1092 785.999994" height="1048" preserveAspectRatio="xMidYMid meet" version="1.0"><defs><clipPath id="3c269e4875"><path d="M 22.785156 467.390625 L 469.035156 467.390625 L 469.035156 763.640625 L 22.785156 763.640625 Z M 22.785156 467.390625 " clip-rule="nonzero"/></clipPath><clipPath id="a62fd3c4d3"><path d="M 149 148 L 299 148 L 299 296.640625 L 149 296.640625 Z M 149 148 " clip-rule="nonzero"/></clipPath><clipPath id="742f3e18b3"><path d="M 298 0.402344 L 447.035156 0.402344 L 447.035156 149 L 298 149 Z M 298 0.402344 " clip-rule="nonzero"/></clipPath><clipPath id="a0bfce2b3b"><path d="M 151 0.402344 L 301 0.402344 L 301 150 L 151 150 Z M 151 0.402344 " clip-rule="nonzero"/></clipPath><clipPath id="20a7ab586c"><path d="M 226 0.402344 L 301 0.402344 L 301 75 L 226 75 Z M 226 0.402344 " clip-rule="nonzero"/></clipPath><clipPath id="08699309f2"><path d="M 300 0.402344 L 447.035156 0.402344 L 447.035156 150 L 300 150 Z M 300 0.402344 " clip-rule="nonzero"/></clipPath><clipPath id="3492d1ed43"><path d="M 300 0.402344 L 375 0.402344 L 375 75 L 300 75 Z M 300 0.402344 " clip-rule="nonzero"/></clipPath><clipPath id="48d0ce6ac0"><path d="M 0.785156 0.402344 L 150 0.402344 L 150 149 L 0.785156 149 Z M 0.785156 0.402344 " clip-rule="nonzero"/></clipPath><clipPath id="8e2487deed"><path d="M 0.785156 148 L 150 148 L 150 296.640625 L 0.785156 296.640625 Z M 0.785156 148 " clip-rule="nonzero"/></clipPath><clipPath id="0dbd37aec0"><rect x="0" width="448" y="0" height="297"/></clipPath><clipPath id="40f85d5b12"><path d="M 911.683594 613.898438 L 1061.683594 613.898438 L 1061.683594 763.898438 L 911.683594 763.898438 Z M 911.683594 613.898438 " clip-rule="nonzero"/></clipPath><clipPath id="55d9b7ae03"><path d="M 765.421875 468.472656 L 914 468.472656 L 914 617 L 765.421875 617 Z M 765.421875 468.472656 " clip-rule="nonzero"/></clipPath><clipPath id="8420769f93"><path d="M 913 468.472656 L 1061.671875 468.472656 L 1061.671875 617 L 913 617 Z M 913 468.472656 " clip-rule="nonzero"/></clipPath><clipPath id="66f7e44867"><path d="M 913 616 L 1061.671875 616 L 1061.671875 764.722656 L 913 764.722656 Z M 913 616 " clip-rule="nonzero"/></clipPath><clipPath id="372225bd6d"><path d="M 987 616 L 1061.671875 616 L 1061.671875 617 L 987 617 Z M 987 616 " clip-rule="nonzero"/></clipPath><clipPath id="41557aceea"><path d="M 765.421875 616 L 914 616 L 914 764.722656 L 765.421875 764.722656 Z M 765.421875 616 " clip-rule="nonzero"/></clipPath><clipPath id="596e9b334d"><path d="M 468.894531 467.414062 L 765.144531 467.414062 L 765.144531 763.660156 L 468.894531 763.660156 Z M 468.894531 467.414062 " clip-rule="nonzero"/></clipPath><clipPath id="fa70bfbf72"><path d="M 1.164062 149 L 150 149 L 150 296.660156 L 1.164062 296.660156 Z M 1.164062 149 " clip-rule="nonzero"/></clipPath><clipPath id="a463f4f5e8"><path d="M 149 0.414062 L 297.144531 0.414062 L 297.144531 149 L 149 149 Z M 149 0.414062 " clip-rule="nonzero"/></clipPath><clipPath id="b8f9b70344"><path d="M 149 148 L 297.144531 148 L 297.144531 296.660156 L 149 296.660156 Z M 149 148 " clip-rule="nonzero"/></clipPath><clipPath id="ffda6e7822"><path d="M 24 0.414062 L 150 0.414062 L 150 125 L 24 125 Z M 24 0.414062 " clip-rule="nonzero"/></clipPath><clipPath id="3fc06a3cf5"><path d="M 48 0.414062 L 150 0.414062 L 150 101 L 48 101 Z M 48 0.414062 " clip-rule="nonzero"/></clipPath><clipPath id="6a4d5abb44"><path d="M 73 0.414062 L 150 0.414062 L 150 77 L 73 77 Z M 73 0.414062 " clip-rule="nonzero"/></clipPath><clipPath id="a9d641cb02"><path d="M 97 0.414062 L 150 0.414062 L 150 52 L 97 52 Z M 97 0.414062 " clip-rule="nonzero"/></clipPath><clipPath id="5485733784"><path d="M 121 0.414062 L 150 0.414062 L 150 28 L 121 28 Z M 121 0.414062 " clip-rule="nonzero"/></clipPath><clipPath id="20062fd1e8"><path d="M 1.164062 0.414062 L 150 0.414062 L 150 149 L 1.164062 149 Z M 1.164062 0.414062 " clip-rule="nonzero"/></clipPath><clipPath id="e83e568d3f"><path d="M 1.164062 172 L 137 172 L 137 296.660156 L 1.164062 296.660156 Z M 1.164062 172 " clip-rule="nonzero"/></clipPath><clipPath id="b782ea6042"><path d="M 1.164062 197 L 113 197 L 113 296.660156 L 1.164062 296.660156 Z M 1.164062 197 " clip-rule="nonzero"/></clipPath><clipPath id="a512a3824a"><path d="M 1.164062 221 L 89 221 L 89 296.660156 L 1.164062 296.660156 Z M 1.164062 221 " clip-rule="nonzero"/></clipPath><clipPath id="0ebf5781d9"><path d="M 1.164062 245 L 64 245 L 64 296.660156 L 1.164062 296.660156 Z M 1.164062 245 " clip-rule="nonzero"/></clipPath><clipPath id="11774141f1"><path d="M 1.164062 270 L 40 270 L 40 296.660156 L 1.164062 296.660156 Z M 1.164062 270 " clip-rule="nonzero"/></clipPath><clipPath id="7c2b35939a"><rect x="0" width="298" y="0" height="297"/></clipPath><clipPath id="db46bcd356"><path d="M 468.894531 173.71875 L 1061.394531 173.71875 L 1061.394531 468.46875 L 468.894531 468.46875 Z M 468.894531 173.71875 " clip-rule="nonzero"/></clipPath><clipPath id="c13a0d75ce"><path d="M 298 0.71875 L 447 0.71875 L 447 148 L 298 148 Z M 298 0.71875 " clip-rule="nonzero"/></clipPath><clipPath id="c6acb8f845"><path d="M 1.175781 147 L 150 147 L 150 295.316406 L 1.175781 295.316406 Z M 1.175781 147 " clip-rule="nonzero"/></clipPath><clipPath id="45813dc856"><path d="M 298 147 L 447 147 L 447 295.316406 L 298 295.316406 Z M 298 147 " clip-rule="nonzero"/></clipPath><clipPath id="2500473075"><path d="M 445 147 L 593.394531 147 L 593.394531 295.316406 L 445 295.316406 Z M 445 147 " clip-rule="nonzero"/></clipPath><clipPath id="898a5963be"><path d="M 149 0.71875 L 298 0.71875 L 298 295.316406 L 149 295.316406 Z M 149 0.71875 " clip-rule="nonzero"/></clipPath><clipPath id="40897341c0"><rect x="0" width="594" y="0" height="296"/></clipPath></defs><g clip-path="url(#3c269e4875)"><g transform="matrix(1, 0, 0, 1, 22, 467)"><g clip-path="url(#0dbd37aec0)"><g clip-path="url(#a62fd3c4d3)"><path fill="#000000" d="M 149.40625 148.613281 L 298.28125 148.613281 L 298.28125 296.707031 L 297.515625 296.707031 C 215.714844 296.707031 149.40625 230.414062 149.40625 148.613281 Z M 149.40625 148.613281 " fill-opacity="1" fill-rule="nonzero"/></g><g clip-path="url(#742f3e18b3)"><path fill="#ffc4bb" d="M 298.28125 148.613281 L 447.15625 148.613281 L 447.15625 0.519531 L 298.28125 0.519531 Z M 298.28125 148.613281 " fill-opacity="1" fill-rule="nonzero"/></g><g clip-path="url(#a0bfce2b3b)"><path fill="#007e85" d="M 300.160156 149.488281 L 300.160156 0.519531 L 151.9375 0.519531 L 151.9375 1.28125 C 151.9375 83.140625 218.300781 149.488281 300.160156 149.488281 Z M 300.160156 149.488281 " fill-opacity="1" fill-rule="nonzero"/></g><g clip-path="url(#20a7ab586c)"><path fill="#fe6c56" d="M 300.160156 74.929688 L 300.160156 0.519531 L 226.125 0.519531 L 226.125 0.910156 C 226.125 41.785156 259.269531 74.929688 300.160156 74.929688 Z M 300.160156 74.929688 " fill-opacity="1" fill-rule="nonzero"/></g><g clip-path="url(#08699309f2)"><path fill="#007e85" d="M 300.105469 149.488281 L 300.105469 0.519531 L 448.328125 0.519531 L 448.328125 1.28125 C 448.328125 83.140625 381.964844 149.488281 300.105469 149.488281 Z M 300.105469 149.488281 " fill-opacity="1" fill-rule="nonzero"/></g><g clip-path="url(#3492d1ed43)"><path fill="#ffc4bb" d="M 300.105469 74.929688 L 300.105469 0.519531 L 374.140625 0.519531 L 374.140625 0.910156 C 374.140625 41.785156 340.996094 74.929688 300.105469 74.929688 Z M 300.105469 74.929688 " fill-opacity="1" fill-rule="nonzero"/></g><g clip-path="url(#48d0ce6ac0)"><path fill="#000000" d="M 0.527344 148.613281 C 0.527344 66.808594 66.839844 0.519531 148.621094 0.519531 L 149.386719 0.519531 L 149.386719 148.613281 Z M 0.527344 148.613281 " fill-opacity="1" fill-rule="nonzero"/></g><g clip-path="url(#8e2487deed)"><path fill="#fe6c56" d="M 0.527344 296.707031 L 0.527344 148.613281 L 149.40625 148.613281 C 149.40625 230.414062 83.09375 296.707031 1.3125 296.707031 Z M 0.527344 296.707031 " fill-opacity="1" fill-rule="nonzero"/></g><path fill="#ffc4bb" d="M 23.601562 182.335938 C 28.964844 182.335938 33.300781 177.996094 33.300781 172.632812 C 33.300781 167.269531 28.964844 162.933594 23.601562 162.933594 C 18.238281 162.933594 13.898438 167.269531 13.898438 172.632812 C 13.898438 177.996094 18.257812 182.335938 23.601562 182.335938 Z M 23.601562 182.335938 " fill-opacity="1" fill-rule="nonzero"/><path fill="#ffc4bb" d="M 51.179688 182.335938 C 56.542969 182.335938 60.878906 177.996094 60.878906 172.632812 C 60.878906 167.269531 56.542969 162.933594 51.179688 162.933594 C 45.816406 162.933594 41.476562 167.269531 41.476562 172.632812 C 41.496094 177.996094 45.832031 182.335938 51.179688 182.335938 Z M 51.179688 182.335938 " fill-opacity="1" fill-rule="nonzero"/><path fill="#ffc4bb" d="M 78.773438 182.335938 C 84.136719 182.335938 88.476562 177.996094 88.476562 172.632812 C 88.476562 167.269531 84.136719 162.933594 78.773438 162.933594 C 73.410156 162.933594 69.074219 167.269531 69.074219 172.632812 C 69.074219 177.996094 73.410156 182.335938 78.773438 182.335938 Z M 78.773438 182.335938 " fill-opacity="1" fill-rule="nonzero"/><path fill="#ffc4bb" d="M 33.300781 202.242188 C 33.300781 201.605469 33.238281 200.972656 33.117188 200.347656 C 32.992188 199.722656 32.808594 199.117188 32.5625 198.527344 C 32.320312 197.941406 32.019531 197.382812 31.667969 196.851562 C 31.3125 196.320312 30.910156 195.832031 30.460938 195.382812 C 30.011719 194.929688 29.519531 194.527344 28.988281 194.175781 C 28.460938 193.820312 27.902344 193.523438 27.3125 193.277344 C 26.722656 193.035156 26.117188 192.851562 25.492188 192.726562 C 24.867188 192.601562 24.238281 192.539062 23.601562 192.539062 C 22.964844 192.539062 22.332031 192.601562 21.707031 192.726562 C 21.082031 192.851562 20.476562 193.035156 19.886719 193.277344 C 19.300781 193.523438 18.738281 193.820312 18.210938 194.175781 C 17.679688 194.527344 17.191406 194.929688 16.742188 195.382812 C 16.289062 195.832031 15.886719 196.320312 15.535156 196.851562 C 15.179688 197.382812 14.882812 197.941406 14.636719 198.527344 C 14.394531 199.117188 14.210938 199.722656 14.085938 200.347656 C 13.960938 200.972656 13.898438 201.605469 13.898438 202.242188 C 13.898438 202.878906 13.960938 203.507812 14.085938 204.132812 C 14.210938 204.757812 14.394531 205.367188 14.636719 205.953125 C 14.882812 206.542969 15.179688 207.101562 15.535156 207.632812 C 15.886719 208.160156 16.289062 208.652344 16.742188 209.101562 C 17.191406 209.550781 17.679688 209.953125 18.210938 210.308594 C 18.738281 210.664062 19.300781 210.960938 19.886719 211.203125 C 20.476562 211.449219 21.082031 211.632812 21.707031 211.757812 C 22.332031 211.882812 22.964844 211.941406 23.601562 211.941406 C 24.238281 211.941406 24.867188 211.882812 25.492188 211.757812 C 26.117188 211.632812 26.722656 211.449219 27.3125 211.203125 C 27.902344 210.960938 28.460938 210.664062 28.988281 210.308594 C 29.519531 209.953125 30.011719 209.550781 30.460938 209.101562 C 30.910156 208.652344 31.3125 208.160156 31.667969 207.632812 C 32.019531 207.101562 32.320312 206.542969 32.5625 205.953125 C 32.808594 205.367188 32.992188 204.757812 33.117188 204.132812 C 33.238281 203.507812 33.300781 202.878906 33.300781 202.242188 Z M 33.300781 202.242188 " fill-opacity="1" fill-rule="nonzero"/><path fill="#ffc4bb" d="M 51.179688 211.941406 C 56.542969 211.941406 60.878906 207.605469 60.878906 202.242188 C 60.878906 196.878906 56.542969 192.539062 51.179688 192.539062 C 45.816406 192.539062 41.476562 196.878906 41.476562 202.242188 C 41.496094 207.605469 45.832031 211.941406 51.179688 211.941406 Z M 51.179688 211.941406 " fill-opacity="1" fill-rule="nonzero"/><path fill="#ffc4bb" d="M 33.300781 231.847656 C 33.300781 231.210938 33.238281 230.582031 33.117188 229.957031 C 32.992188 229.332031 32.808594 228.726562 32.5625 228.136719 C 32.320312 227.546875 32.019531 226.988281 31.667969 226.460938 C 31.3125 225.929688 30.910156 225.441406 30.460938 224.988281 C 30.011719 224.539062 29.519531 224.136719 28.988281 223.78125 C 28.460938 223.429688 27.902344 223.128906 27.3125 222.886719 C 26.722656 222.640625 26.117188 222.457031 25.492188 222.335938 C 24.867188 222.210938 24.238281 222.148438 23.601562 222.148438 C 22.964844 222.148438 22.332031 222.210938 21.707031 222.335938 C 21.082031 222.457031 20.476562 222.640625 19.886719 222.886719 C 19.300781 223.128906 18.738281 223.429688 18.210938 223.78125 C 17.679688 224.136719 17.191406 224.539062 16.742188 224.988281 C 16.289062 225.441406 15.886719 225.929688 15.535156 226.460938 C 15.179688 226.988281 14.882812 227.546875 14.636719 228.136719 C 14.394531 228.726562 14.210938 229.332031 14.085938 229.957031 C 13.960938 230.582031 13.898438 231.210938 13.898438 231.847656 C 13.898438 232.484375 13.960938 233.117188 14.085938 233.742188 C 14.210938 234.367188 14.394531 234.972656 14.636719 235.5625 C 14.882812 236.152344 15.179688 236.710938 15.535156 237.238281 C 15.886719 237.769531 16.289062 238.257812 16.742188 238.710938 C 17.191406 239.160156 17.679688 239.5625 18.210938 239.914062 C 18.738281 240.269531 19.300781 240.570312 19.886719 240.8125 C 20.476562 241.054688 21.082031 241.238281 21.707031 241.363281 C 22.332031 241.488281 22.964844 241.550781 23.601562 241.550781 C 24.238281 241.550781 24.867188 241.488281 25.492188 241.363281 C 26.117188 241.238281 26.722656 241.054688 27.3125 240.8125 C 27.902344 240.570312 28.460938 240.269531 28.988281 239.914062 C 29.519531 239.5625 30.011719 239.160156 30.460938 238.710938 C 30.910156 238.257812 31.3125 237.769531 31.667969 237.238281 C 32.019531 236.710938 32.320312 236.152344 32.5625 235.5625 C 32.808594 234.972656 32.992188 234.367188 33.117188 233.742188 C 33.238281 233.117188 33.300781 232.484375 33.300781 231.847656 Z M 33.300781 231.847656 " fill-opacity="1" fill-rule="nonzero"/></g></g></g><g clip-path="url(#40f85d5b12)"><path fill="#000000" d="M 1061.683594 613.898438 L 911.683594 613.898438 L 911.683594 763.898438 C 994.527344 763.898438 1061.683594 696.742188 1061.683594 613.898438 Z M 1061.683594 613.898438 " fill-opacity="1" fill-rule="nonzero"/></g><g clip-path="url(#55d9b7ae03)"><path fill="#fdb82b" d="M 839.652344 468.417969 L 765.6875 468.417969 C 765.6875 550.132812 831.902344 616.347656 913.617188 616.347656 L 913.617188 542.332031 L 913.5625 542.332031 C 872.75 542.332031 839.652344 509.230469 839.652344 468.417969 Z M 839.652344 468.417969 " fill-opacity="1" fill-rule="nonzero"/></g><g clip-path="url(#8420769f93)"><path fill="#013729" d="M 1061.582031 616.332031 L 913.652344 616.332031 L 913.652344 468.402344 C 995.363281 468.402344 1061.582031 534.617188 1061.582031 616.332031 Z M 1061.582031 616.332031 " fill-opacity="1" fill-rule="nonzero"/></g><path fill="#c86416" d="M 987.617188 616.277344 L 913.652344 616.277344 L 913.652344 542.367188 L 913.703125 542.367188 C 954.515625 542.367188 987.617188 575.464844 987.617188 616.277344 Z M 987.617188 616.277344 " fill-opacity="1" fill-rule="nonzero"/><g clip-path="url(#66f7e44867)"><path fill="#e8decd" d="M 1061.582031 616.648438 C 1061.5625 698.34375 995.347656 764.527344 913.652344 764.527344 L 913.652344 764.472656 C 913.652344 764.472656 913.652344 764.472656 913.632812 764.472656 L 913.632812 764.597656 L 1061.597656 764.597656 Z M 1061.582031 616.648438 " fill-opacity="1" fill-rule="nonzero"/></g><path fill="#fff3e6" d="M 913.652344 616.417969 L 913.703125 616.417969 L 913.703125 616.472656 L 913.652344 616.472656 Z M 913.652344 616.417969 " fill-opacity="1" fill-rule="nonzero"/><g clip-path="url(#372225bd6d)"><path fill="#fff3e6" d="M 1061.582031 616.417969 L 987.617188 616.417969 L 987.617188 616.472656 L 1061.582031 616.472656 C 1061.582031 616.457031 1061.582031 616.4375 1061.582031 616.417969 Z M 1061.582031 616.417969 " fill-opacity="1" fill-rule="nonzero"/></g><g clip-path="url(#41557aceea)"><path fill="#619d7b" d="M 765.667969 616.472656 L 913.632812 616.472656 L 913.632812 764.4375 L 765.667969 764.4375 Z M 765.667969 616.472656 " fill-opacity="1" fill-rule="nonzero"/></g><g clip-path="url(#596e9b334d)"><g transform="matrix(1, 0, 0, 1, 468, 467)"><g clip-path="url(#7c2b35939a)"><g clip-path="url(#fa70bfbf72)"><path fill="#007e85" d="M 0.859375 297.65625 C 82.753906 297.65625 149.136719 231.277344 149.136719 149.378906 L 0.859375 149.378906 Z M 0.859375 297.65625 " fill-opacity="1" fill-rule="nonzero"/></g><g clip-path="url(#a463f4f5e8)"><path fill="#ffc4bb" d="M 297.449219 0.121094 C 215.554688 0.121094 149.171875 66.503906 149.171875 148.398438 L 297.449219 148.398438 Z M 297.449219 0.121094 " fill-opacity="1" fill-rule="nonzero"/></g><g clip-path="url(#b8f9b70344)"><path fill="#fe7b67" d="M 297.449219 296.675781 C 297.449219 214.78125 231.070312 148.398438 149.171875 148.398438 L 149.171875 296.675781 Z M 297.449219 296.675781 " fill-opacity="1" fill-rule="nonzero"/></g><g clip-path="url(#ffda6e7822)"><path fill="#984134" d="M 149.171875 124.882812 L 149.171875 113.085938 C 86.894531 113.085938 36.207031 62.417969 36.207031 0.121094 L 24.414062 0.121094 C 24.394531 68.914062 80.378906 124.882812 149.171875 124.882812 Z M 149.171875 124.882812 " fill-opacity="1" fill-rule="nonzero"/></g><g clip-path="url(#3fc06a3cf5)"><path fill="#984134" d="M 149.171875 100.507812 L 149.171875 88.714844 C 100.320312 88.714844 60.5625 48.972656 60.5625 0.101562 L 48.765625 0.101562 C 48.765625 55.46875 93.808594 100.507812 149.171875 100.507812 Z M 149.171875 100.507812 " fill-opacity="1" fill-rule="nonzero"/></g><g clip-path="url(#6a4d5abb44)"><path fill="#984134" d="M 149.171875 76.15625 L 149.171875 64.359375 C 113.75 64.359375 84.933594 35.542969 84.933594 0.121094 L 73.136719 0.121094 C 73.121094 42.039062 107.234375 76.15625 149.171875 76.15625 Z M 149.171875 76.15625 " fill-opacity="1" fill-rule="nonzero"/></g><g clip-path="url(#a9d641cb02)"><path fill="#984134" d="M 149.171875 51.804688 L 149.171875 40.007812 C 127.179688 40.007812 109.285156 22.117188 109.285156 0.121094 L 97.492188 0.121094 C 97.472656 28.613281 120.664062 51.804688 149.171875 51.804688 Z M 149.171875 51.804688 " fill-opacity="1" fill-rule="nonzero"/></g><g clip-path="url(#5485733784)"><path fill="#984134" d="M 149.171875 27.449219 L 149.171875 15.65625 C 140.609375 15.65625 133.640625 8.6875 133.640625 0.121094 L 121.84375 0.121094 C 121.84375 15.183594 134.09375 27.449219 149.171875 27.449219 Z M 149.171875 27.449219 " fill-opacity="1" fill-rule="nonzero"/></g><g clip-path="url(#20062fd1e8)"><path fill="#984134" d="M 12.636719 -0.859375 C 12.636719 -0.53125 12.617188 -0.207031 12.617188 0.121094 C 12.617188 75.394531 73.84375 136.640625 149.117188 136.65625 L 149.117188 148.398438 C 67.386719 148.382812 0.875 81.855469 0.875 0.121094 C 0.875 -0.207031 0.894531 -0.53125 0.894531 -0.859375 Z M 12.636719 -0.859375 " fill-opacity="1" fill-rule="nonzero"/></g><g clip-path="url(#e83e568d3f)"><path fill="#013729" d="M 13.363281 172.898438 L 13.363281 172.933594 C 81.59375 173.585938 136.90625 229.28125 136.90625 297.675781 L 125.109375 297.675781 C 125.109375 235.394531 74.445312 184.710938 12.144531 184.710938 L 0.929688 184.710938 L 0.929688 172.914062 L 13.363281 172.914062 Z M 13.363281 172.898438 " fill-opacity="1" fill-rule="nonzero"/></g><g clip-path="url(#b782ea6042)"><path fill="#013729" d="M 13.363281 197.25 L 13.363281 197.285156 C 68.164062 197.941406 112.550781 242.707031 112.550781 297.65625 L 100.757812 297.65625 C 100.757812 248.804688 61.015625 209.046875 12.144531 209.046875 L 0.929688 209.046875 L 0.929688 197.25 Z M 13.363281 197.25 " fill-opacity="1" fill-rule="nonzero"/></g><g clip-path="url(#a512a3824a)"><path fill="#013729" d="M 13.363281 221.605469 L 13.363281 221.640625 C 54.738281 222.292969 88.179688 256.136719 88.179688 297.65625 L 76.386719 297.65625 C 76.386719 262.234375 47.570312 233.417969 12.144531 233.417969 L 0.929688 233.417969 L 0.929688 221.621094 L 13.363281 221.621094 Z M 13.363281 221.605469 " fill-opacity="1" fill-rule="nonzero"/></g><g clip-path="url(#0ebf5781d9)"><path fill="#013729" d="M 13.363281 245.992188 C 41.308594 246.644531 63.828125 269.566406 63.828125 297.65625 L 52.03125 297.65625 C 52.03125 275.664062 34.140625 257.769531 12.144531 257.769531 L 0.929688 257.769531 L 0.929688 245.976562 L 13.363281 245.976562 Z M 13.363281 245.992188 " fill-opacity="1" fill-rule="nonzero"/></g><g clip-path="url(#11774141f1)"><path fill="#013729" d="M 13.363281 270.382812 C 27.859375 271.035156 39.476562 282.996094 39.476562 297.65625 L 27.679688 297.65625 C 27.679688 289.089844 20.710938 282.125 12.144531 282.125 L 0.929688 282.125 L 0.929688 270.328125 L 13.363281 270.328125 Z M 13.363281 270.382812 " fill-opacity="1" fill-rule="nonzero"/></g></g></g></g><g clip-path="url(#db46bcd356)"><g transform="matrix(1, 0, 0, 1, 468, 173)"><g clip-path="url(#40897341c0)"><g clip-path="url(#c13a0d75ce)"><path fill="#000000" d="M 298.210938 147.625 C 298.230469 66 364.429688 -0.199219 446.058594 -0.199219 L 446.058594 147.625 Z M 298.210938 147.625 " fill-opacity="1" fill-rule="nonzero"/></g><g clip-path="url(#c6acb8f845)"><path fill="#000000" d="M 1.273438 295.1875 C 1.292969 213.5625 67.492188 147.359375 149.121094 147.359375 L 149.121094 295.1875 Z M 1.273438 295.1875 " fill-opacity="1" fill-rule="nonzero"/></g><g clip-path="url(#45813dc856)"><path fill="#ffc4bb" d="M 446.039062 295.488281 C 364.414062 295.46875 298.210938 229.269531 298.210938 147.644531 L 446.039062 147.644531 Z M 446.039062 295.488281 " fill-opacity="1" fill-rule="nonzero"/></g><g clip-path="url(#2500473075)"><path fill="#007e85" d="M 445.660156 295.488281 C 527.285156 295.46875 593.484375 229.269531 593.484375 147.644531 L 445.660156 147.644531 Z M 445.660156 295.488281 " fill-opacity="1" fill-rule="nonzero"/></g><g clip-path="url(#898a5963be)"><path fill="#984134" d="M 149.175781 295.109375 L 151.332031 295.109375 C 231.785156 295.109375 297.003906 229.894531 297.003906 149.441406 L 297.003906 0.515625 L 149.175781 0.515625 Z M 149.175781 295.109375 " fill-opacity="1" fill-rule="nonzero"/></g><path fill="#fe7b67" d="M 511.445312 147.359375 L 511.691406 147.359375 C 547.816406 147.359375 577.097656 118.078125 577.097656 81.953125 C 577.097656 45.828125 547.816406 16.546875 511.691406 16.546875 L 511.445312 16.546875 C 475.320312 16.546875 446.039062 45.828125 446.039062 81.953125 C 446.039062 118.078125 475.320312 147.359375 511.445312 147.359375 Z M 511.445312 147.359375 " fill-opacity="1" fill-rule="nonzero"/></g></g></g></svg>